<svg width="143" height="33" viewBox="0 0 143 33" xmlns="http://www.w3.org/2000/svg" xmlns:xlink="http://www.w3.org/1999/xlink"><title>Group 4</title><defs><path id="a" d="M0 0h150v37H0z"/><linearGradient x1="49.976%" y1="100%" x2="49.976%" y2=".027%" id="c"><stop stop-color="#FFF" stop-opacity="0" offset="0%"/><stop stop-color="#FFF" stop-opacity=".4" offset="100%"/></linearGradient></defs><g transform="translate(-3 -2)" fill="none" fill-rule="evenodd"><mask id="b" fill="#fff"><use xlink:href="#a"/></mask><g fill-rule="nonzero" mask="url(#b)"><path fill="#FFF" d="M23 5v19h-2.251v-8.549H5.25V24H3V5h2.251v8.287h15.476V5zM79 21.88V24H62V5h2.296v16.901H79zM87 24V5h2v19zM119 7.055h-8.886V24h-2.25V7.055H99V5h20zM146 21.88V24h-18V5h17.743v2.12h-15.496v6.167h13.12v2.12h-13.141v6.494H146z"/><path fill="url(#c)" d="M10.99 33L0 22.01 10.99 11 22 22.01z" transform="translate(31 2)"/><path fill="#FFF" d="M42 2v10.804L53 24V13.196z"/><path fill="#E5E5E5" d="M42 2v10.804L31 24V13.196z"/></g></g></svg>