<svg width="143" height="33" viewBox="0 0 143 33" xmlns="http://www.w3.org/2000/svg"><title>full_logo</title><defs><linearGradient x1="49.976%" y1="100%" x2="49.976%" y2=".027%" id="a"><stop stop-color="#FFBE00" stop-opacity="0" offset="0%"/><stop stop-color="#FFBE00" stop-opacity=".4" offset="100%"/></linearGradient></defs><g fill-rule="nonzero" fill="none"><path fill="#E37222" d="M20 3v19h-2.251v-8.549H2.25V22H0V3h2.251v8.287h15.476V3zM76 19.88V22H59V3h2.296v16.901H76zM84 22V3h2v19zM116 5.055h-8.886V22h-2.25V5.055H96V3h20zM143 19.88V22h-18V3h17.743v2.12h-15.496v6.167h13.12v2.12h-13.141v6.494H143z"/><path fill="url(#a)" d="M38.99 33L28 22.01 38.99 11 50 22.01z"/><path fill="#E37222" d="M39 0v10.804L50 22V11.196z"/><path fill="#FFBE00" d="M39 0v10.804L28 22V11.196z"/></g></svg>