<?xml version="1.0" encoding="UTF-8"?>
<svg width="143px" height="33px" viewBox="0 0 143 33" version="1.1" xmlns="http://www.w3.org/2000/svg" xmlns:xlink="http://www.w3.org/1999/xlink">
    <!-- Generator: Sketch 51.2 (57519) - http://www.bohemiancoding.com/sketch -->
    <title>full_logo</title>
    <desc>Created with Sketch.</desc>
    <defs>
        <linearGradient x1="49.9762415%" y1="100%" x2="49.9762415%" y2="0.0271665044%" id="linearGradient-1">
            <stop stop-color="#FFBE00" stop-opacity="0" offset="0%"></stop>
            <stop stop-color="#FFBE00" stop-opacity="0.4" offset="100%"></stop>
        </linearGradient>
    </defs>
    <g id="Symbols" stroke="none" stroke-width="1" fill="none" fill-rule="evenodd">
        <g id="Footer---Mobile" transform="translate(-36.000000, -40.000000)" fill-rule="nonzero">
            <g id="Group-9-+-Group-3-Mask" transform="translate(-803.000000, -189.000000)">
                <g id="Group-3" transform="translate(839.000000, 229.000000)">
                    <g id="Logo">
                        <g id="full_logo">
                            <polygon id="Shape" fill="#E37222" points="20 3 20 22 17.7489177 22 17.7489177 13.4510932 2.25108225 13.4510932 2.25108225 22 0 22 0 3 2.25108225 3 2.25108225 11.2865362 17.7272727 11.2865362 17.7272727 3"></polygon>
                            <polygon id="Shape" fill="#E37222" points="76 19.8791715 76 22 59 22 59 3 61.2961039 3 61.2961039 19.9010357 76 19.9010357"></polygon>
                            <polygon id="Shape" fill="#E37222" points="84 22 84 3 86 3 86 22"></polygon>
                            <polygon id="Shape" fill="#E37222" points="116 5.0552359 107.113514 5.0552359 107.113514 22 104.864865 22 104.864865 5.0552359 96 5.0552359 96 3 116 3"></polygon>
                            <polygon id="Shape" fill="#E37222" points="143 19.8791715 143 22 125 22 125 3 142.743163 3 142.743163 5.12082854 127.247325 5.12082854 127.247325 11.2865362 140.36742 11.2865362 140.36742 13.4073648 127.225922 13.4073648 127.225922 19.9010357 143 19.9010357"></polygon>
                            <polygon id="Shape" fill="url(#linearGradient-1)" points="38.9892892 33 28 22.0107108 38.9892892 11 50 22.0107108"></polygon>
                            <polygon id="Shape" fill="#E37222" points="39 0 39 10.8035714 50 22 50 11.1964286"></polygon>
                            <polygon id="Shape" fill="#FFBE00" points="39 0 39 10.8035714 28 22 28 11.1964286"></polygon>
                        </g>
                    </g>
                </g>
            </g>
        </g>
    </g>
</svg>