<svg width="24" height="24" viewBox="0 0 24 24" xmlns="http://www.w3.org/2000/svg"><title>calendar-grid-61</title><g fill="none" fill-rule="evenodd"><path stroke="#FFF" stroke-width="2" stroke-linecap="square" d="M19 3h4v20H1V3h4M7 3h10"/><path stroke="#FFF" stroke-width="2" stroke-linecap="square" d="M5 1h2v4H5zM17 1h2v4h-2zM1 9h22M5 13h2v1H5zM11 13h2v1h-2zM5 18h2v1H5zM11 18h2v1h-2zM17 13h2v1h-2z"/><path fill="#FFF" fill-rule="nonzero" d="M5 13h2v1H5zM11 13h2v1h-2zM5 18h2v1H5zM11 18h2v1h-2zM17 13h2v1h-2z"/></g></svg>