<svg width="71" height="84" viewBox="0 0 71 84" xmlns="http://www.w3.org/2000/svg"><title>4</title><g fill="none" fill-rule="evenodd"><path d="M69 60a2 2 0 1 1-.001 4.001A2 2 0 0 1 69 60M69 20a2 2 0 1 1-.001 4.001A2 2 0 0 1 69 20M2 60a2 2 0 1 1-.001 4.001A2 2 0 0 1 2 60M35 80a2 2 0 1 1-.001 4.001A2 2 0 0 1 35 80M35 0a2 2 0 1 1-.001 4.001A2 2 0 0 1 35 0M2 20a2 2 0 1 1-.001 4.001A2 2 0 0 1 2 20" fill="#2ECC71"/><path stroke="#2ECC71" d="M69 22v40L35 82 2 62V22L35 2z"/><g stroke-linecap="square" stroke-width="2" stroke="#2ECC71"><path d="M22 42l3-3 7 5 15-12 3 2-18 19-3.145-3.459-4.309-4.74"/></g></g></svg>