<svg width="31" height="32" viewBox="0 0 31 32" xmlns="http://www.w3.org/2000/svg"><title>flag-diagonal-33</title><g fill-rule="nonzero" fill="none"><path d="M2.96 6.508c-.424-.708-1.27-.991-1.833-.566-.704.425-.986 1.275-.563 1.983L13.95 31.3c.282.425.705.708 1.268.708.282 0 .423 0 .705-.141.704-.425.845-1.275.563-1.984L2.96 6.508z" fill="#033C89"/><path d="M30.436 11.75L24.096.7c-.141-.283-.564-.567-.987-.567-.423 0-.845 0-1.127.425-1.832 1.7-3.946 1.842-6.06 1.842h-1.55c-2.817 0-5.917.283-8.313 3.825l7.891 13.6c.282-.142.423-.283.564-.567 1.69-2.975 3.663-3.116 6.34-3.116h1.41c2.536 0 5.354-.142 8.031-2.55.423-.425.423-1.134.141-1.842z" fill="#F9B148"/></g></svg>