<svg width="56" height="54" viewBox="0 0 56 54" xmlns="http://www.w3.org/2000/svg"><title>Icon 2</title><defs><linearGradient x1="50%" y1="0%" x2="50%" y2="100%" id="b"><stop stop-color="#006CC9" offset="0%"/><stop stop-color="#003A99" offset="100%"/></linearGradient><linearGradient x1=".954%" y1="100%" y2="100%" id="a"><stop stop-color="#35C9E5" stop-opacity="0" offset="0%"/><stop stop-color="#18BEEB" offset="48.197%"/><stop stop-color="#1898C7" stop-opacity="0" offset="100%"/></linearGradient><linearGradient x1="0%" y1="49.977%" y2="49.977%" id="c"><stop stop-color="#289AFF" offset="25%"/><stop stop-color="#285FFF" offset="84%"/></linearGradient><linearGradient x1="100%" y1="50.023%" x2="0%" y2="50.023%" id="d"><stop stop-color="#289AFF" offset="25%"/><stop stop-color="#285FFF" offset="84%"/></linearGradient><linearGradient x1="51.418%" y1="44.497%" x2="57.345%" y2="101.886%" id="e"><stop stop-color="#289AFF" offset="0%"/><stop stop-color="#285FFF" offset="100%"/></linearGradient></defs><g fill-rule="nonzero" fill="none"><rect fill="#010407" opacity=".5" x=".34" y=".69" width="54.68" height="53.03" rx="2.9"/><rect stroke="url(#a)" stroke-width="2" fill="url(#b)" x="1.34" y="1.69" width="52.68" height="51.03" rx="2.9"/><rect fill="#F1F9FD" x="2.37" y="2.7" width="50.48" height="49.09" rx="2.88"/><rect stroke="url(#a)" stroke-width="2" fill="url(#b)" x="5" y="6" width="44.757" height="43.346" rx="2.9"/><path fill="#0052B5" d="M14.476 41.23l.867 1.255 6.235-1.247 3.47 4.4.617-1.367 2.197-10.344-6.705-.29-5.66 6.821z"/><path fill="url(#c)" d="M9.016 17.993l-.08.145-7.46 14.092 7.597-1.625 3.527 4.947 4.686-13.577z" transform="translate(13 9)"/><path d="M22.17 27.5l7.67 3.692-4.354 12.58-3.121-4.376-.138-.193-.235.049-6.851 1.463L22.17 27.5zm-.154-.475l-.073.145-7.467 14.092 7.605-1.608 3.527 4.946 4.687-13.577-8.27-4.022-.009.024z" opacity=".2" fill="#0FF"/><g transform="translate(13 9)"><path d="M6.21 24.388c0 .12-4.32 7.344-4.134 7.376.186.032 7.248-1.488 7.248-1.488l-4.151-.958 1.038-4.93z" fill="#0FF" opacity=".4"/><path fill="#0052B5" d="M28.605 29.97l-.867 1.263-6.235-1.255-3.835 4.762-.195-1.874-2.262-10.191 6.713-.298 5.66 6.82z"/><path fill="url(#d)" d="M21.065 15.733l.073.145 7.467 14.092-7.597-1.625-3.527 4.947-4.686-13.577z"/><path d="M20.91 16.208l7.022 13.255-6.85-1.472-.236-.048-.138.193-3.122 4.376-4.354-12.62 7.67-3.692.009.008zm.147-.483l-8.27 3.982 4.686 13.577L21 28.337l7.605 1.609-7.467-14.092-.073-.145-.008.016z" opacity=".2" fill="#0FF"/><path d="M23.87 22.128c0 .12 4.322 7.343 4.135 7.375-.186.033-7.248-1.488-7.248-1.488l4.151-.957-1.038-4.93z" fill="#0FF" opacity=".4"/><ellipse fill="#000" opacity=".4" cx="14.027" cy="15.781" rx="13.662" ry="13.553"/><ellipse fill="#4C7090" cx="14.027" cy="14.35" rx="13.662" ry="13.553"/><ellipse fill="#7CA0B8" cx="14.027" cy="13.73" rx="13.086" ry="12.572"/><ellipse fill="#F3FAFC" cx="14.027" cy="13.256" rx="12.584" ry="11.735"/><ellipse fill="#E0F8FD" cx="13.873" cy="13.103" rx="12.43" ry="11.591"/><ellipse fill="#56707F" cx="14.027" cy="13.256" rx="10.905" ry="10.175"/><ellipse fill="#7CA0B8" cx="13.995" cy="13.618" rx="10.573" ry="9.765"/><ellipse fill="#4C7090" cx="13.938" cy="13.497" rx="9.397" ry="9.033"/><ellipse fill="#F3FAFC" cx="13.938" cy="13.143" rx="9.397" ry="8.679"/><ellipse fill="#E0F8FD" cx="13.938" cy="12.878" rx="9.397" ry="8.413"/><ellipse fill="#FFF" transform="rotate(-47.18 5.354 5.793)" cx="5.354" cy="5.793" rx="1.678" ry="1"/><ellipse fill="#FFF" transform="rotate(-47.15 19.123 18.997)" cx="19.123" cy="18.997" rx="1.216" ry="1"/><path d="M19.654 16.827c-6.9 2.638-11.49-.056-11.49-.056L6.804 9.443l3.68 2.228 3.512-3.402 3.567 3.869 3.52-2.293-1.428 6.982z" fill="#FFF"/><path d="M19.654 16.457c-6.9 2.526-11.49-.056-11.49-.056L6.804 9.387l3.68 2.131 3.512-3.217 3.567 3.708 3.52-2.228-1.428 6.676z" fill="#0052B5"/><path d="M19.654 16.537c-6.9 2.35-11.49-.056-11.49-.056l-.623-5.952 3 1.81 3.373-3.033 3.397 3.564 2.96-1.714-.617 5.381z" fill="url(#e)"/><path d="M13.97 4.697a9.457 9.457 0 0 0-8.108 4.336C7.752 7.424 8.23 6.95 9.997 6.089a37.962 37.962 0 0 1 3.973-1.392z" fill="#CCE3EA"/><path d="M26.457 13.48a11.344 11.344 0 0 0-5.376-9.708c1.987 2.253 2.578 2.824 3.649 4.94a45.113 45.113 0 0 1 1.727 4.769z" fill="#B5D7E5"/></g></g></svg>