<?xml version="1.0" encoding="UTF-8"?>
<svg width="31px" height="32px" viewBox="0 0 31 32" version="1.1" xmlns="http://www.w3.org/2000/svg" xmlns:xlink="http://www.w3.org/1999/xlink">
    <!-- Generator: Sketch 51.2 (57519) - http://www.bohemiancoding.com/sketch -->
    <title>flag-diagonal-33</title>
    <desc>Created with Sketch.</desc>
    <defs></defs>
    <g id="Home" stroke="none" stroke-width="1" fill="none" fill-rule="evenodd">
        <g id="Play@2x" transform="translate(-705.000000, -374.000000)" fill-rule="nonzero">
            <g id="Group-2" transform="translate(247.000000, 311.000000)">
                <g id="flag-diagonal-33" transform="translate(458.000000, 63.000000)">
                    <path d="M2.95909091,6.50833333 C2.53636364,5.8 1.69090909,5.51666667 1.12727273,5.94166667 C0.422727273,6.36666667 0.140909091,7.21666667 0.563636364,7.925 L13.95,31.3 C14.2318182,31.725 14.6545455,32.0083333 15.2181818,32.0083333 C15.5,32.0083333 15.6409091,32.0083333 15.9227273,31.8666667 C16.6272727,31.4416667 16.7681818,30.5916667 16.4863636,29.8833333 L2.95909091,6.50833333 Z" id="Shape" fill="#033C89"></path>
                    <path d="M30.4363636,11.75 L24.0954545,0.7 C23.9545455,0.416666667 23.5318182,0.133333333 23.1090909,0.133333333 C22.6863636,0.133333333 22.2636364,0.133333333 21.9818182,0.558333333 C20.15,2.25833333 18.0363636,2.4 15.9227273,2.4 L14.3727273,2.4 C11.5545455,2.4 8.45454545,2.68333333 6.05909091,6.225 L13.95,19.825 C14.2318182,19.6833333 14.3727273,19.5416667 14.5136364,19.2583333 C16.2045455,16.2833333 18.1772727,16.1416667 20.8545455,16.1416667 L22.2636364,16.1416667 C24.8,16.1416667 27.6181818,16 30.2954545,13.5916667 C30.7181818,13.1666667 30.7181818,12.4583333 30.4363636,11.75 Z" id="Shape" fill="#F9B148"></path>
                </g>
            </g>
        </g>
    </g>
</svg>