<svg width="71" height="84" viewBox="0 0 71 84" xmlns="http://www.w3.org/2000/svg"><title>Submit a Bot</title><g fill="none" fill-rule="evenodd"><path d="M69 60a2 2 0 1 1-.001 4.001A2 2 0 0 1 69 60M69 20a2 2 0 1 1-.001 4.001A2 2 0 0 1 69 20M2 60a2 2 0 1 1-.001 4.001A2 2 0 0 1 2 60M35 80a2 2 0 1 1-.001 4.001A2 2 0 0 1 35 80M35 0a2 2 0 1 1-.001 4.001A2 2 0 0 1 35 0M2 20a2 2 0 1 1-.001 4.001A2 2 0 0 1 2 20" fill="#FFBE00"/><path stroke="#FFBE00" d="M69 22v40L35 82 2 62V22L35 2z"/><g stroke="#FFBE00" stroke-width="2"><path d="M30.992 40c0-.316-.032-.629-.004-.937C31.461 33.98 35.935 30 41.142 30h-.15c5.522 0 10 4.479 10 10 0 5.523-4.478 10-10 10"/><path d="M41.067 34c-3.094.039-5.82 2.461-6.096 5.433l.01.099c.006.155.011.312.011.468M28 36a7 7 0 1 0 .001 14h2.994M35.991 54v-8M32.996 49l2.996-2.828L38.996 49"/></g></g></svg>