<svg width="71" height="84" viewBox="0 0 71 84" xmlns="http://www.w3.org/2000/svg"><title>4</title><g fill="none" fill-rule="evenodd"><path d="M69 60a2 2 0 1 1-.001 4.001A2 2 0 0 1 69 60M69 20a2 2 0 1 1-.001 4.001A2 2 0 0 1 69 20M2 60a2 2 0 1 1-.001 4.001A2 2 0 0 1 2 60M35 80a2 2 0 1 1-.001 4.001A2 2 0 0 1 35 80M35 0a2 2 0 1 1-.001 4.001A2 2 0 0 1 35 0M2 20a2 2 0 1 1-.001 4.001A2 2 0 0 1 2 20" fill="#E37222"/><path stroke="#E37222" d="M69 22v40L35 82 2 62V22L35 2z"/><g stroke-width="2" stroke="#E37222"><path d="M42.126 49.543l-7.072-6.863v-10M24.5 53.286c5.133 5.133 13.056 5.767 18.878 1.909M47.62 50.952c3.86-5.823 3.226-13.746-1.907-18.88M50.105 42.693c0-7.26-5.26-13.323-12.105-14.713"/><path d="M32 27.98c-6.846 1.39-12 7.439-12 14.699 0 8.285 6.717 15 15 15"/></g></g></svg>