<svg width="71" height="84" viewBox="0 0 71 84" xmlns="http://www.w3.org/2000/svg"><title>3</title><g fill="none" fill-rule="evenodd"><path d="M69 60a2 2 0 1 1-.001 4.001A2 2 0 0 1 69 60M69 20a2 2 0 1 1-.001 4.001A2 2 0 0 1 69 20M2 60a2 2 0 1 1-.001 4.001A2 2 0 0 1 2 60M35 80a2 2 0 1 1-.001 4.001A2 2 0 0 1 35 80M35 0a2 2 0 1 1-.001 4.001A2 2 0 0 1 35 0M2 20a2 2 0 1 1-.001 4.001A2 2 0 0 1 2 20" fill="#FFBE00"/><path stroke="#FFBE00" d="M69 22v40L35 82 2 62V22L35 2z"/><g stroke="#FFBE00" stroke-width="2"><path d="M39.126 35.001a8 8 0 1 1-16-.002 8 8 0 0 1 16 .002zM42.126 31a6 6 0 1 1 0 11.999M45.126 46.975l4 1.025 1 7h-5M36.992 47l4.106 1.331L42.125 57h-22l1.027-8.669L25.26 47"/></g></g></svg>