<svg width="28" height="30" viewBox="0 0 28 30" xmlns="http://www.w3.org/2000/svg"><title>Polygon</title><defs><linearGradient x1="73.189%" y1="84.675%" x2="16.131%" y2="15.151%" id="a"><stop stop-color="#BABABA" offset="0%"/><stop stop-color="#848484" offset="100%"/></linearGradient></defs><path d="M14 1L1.876 8v14L14 29l12.124-7V8L14 1zm.5-.866l12.124 7a1 1 0 0 1 .5.866v14a1 1 0 0 1-.5.866l-12.124 7a1 1 0 0 1-1 0l-12.124-7a1 1 0 0 1-.5-.866V8a1 1 0 0 1 .5-.866l12.124-7a1 1 0 0 1 1 0zM9.187 16.536a.5.5 0 1 0-.374.928l4.945 2a.5.5 0 0 0 .371 0l5.055-2a.5.5 0 0 0-.368-.929l-4.869 1.926-4.76-1.925zm4.76-3.075l-4.76-1.925a.5.5 0 1 0-.374.928l4.945 2a.5.5 0 0 0 .371 0l5.055-2a.5.5 0 0 0-.368-.929l-4.869 1.926z" fill-rule="nonzero" fill="url(#a)"/></svg>