<svg width="28" height="30" viewBox="0 0 28 30" xmlns="http://www.w3.org/2000/svg"><title>Polygon</title><path d="M14 1L1.876 8v14L14 29l12.124-7V8L14 1zm.5-.866l12.124 7a1 1 0 0 1 .5.866v14a1 1 0 0 1-.5.866l-12.124 7a1 1 0 0 1-1 0l-12.124-7a1 1 0 0 1-.5-.866V8a1 1 0 0 1 .5-.866l12.124-7a1 1 0 0 1 1 0zm-3.95 19.615l3.217-1.692a.5.5 0 0 1 .466 0l3.217 1.692-.614-3.583a.5.5 0 0 1 .144-.442l2.603-2.538-3.598-.523a.5.5 0 0 1-.376-.273L14 9.13l-1.609 3.26a.5.5 0 0 1-.376.273l-3.598.523 2.603 2.538a.5.5 0 0 1 .144.442l-.614 3.583zm-.432 1.357a.5.5 0 0 1-.725-.527l.741-4.323-3.14-3.061a.5.5 0 0 1 .277-.853l4.34-.63 1.94-3.933a.5.5 0 0 1 .897 0l1.941 3.932 4.34.631a.5.5 0 0 1 .277.853l-3.14 3.061.741 4.323a.5.5 0 0 1-.725.527L14 19.065l-3.882 2.04z" fill-rule="nonzero" fill="#FFBE00"/></svg>