<svg width="28" height="30" viewBox="0 0 28 30" xmlns="http://www.w3.org/2000/svg"><title>Polygon</title><defs><linearGradient x1="83.523%" y1="82.945%" x2="14.012%" y2="15.067%" id="a"><stop stop-color="#E1E7ED" offset="0%"/><stop stop-color="#93A2B4" offset="100%"/></linearGradient></defs><path d="M13 0L.876 7v14L13 28l12.124-7V7L13 0zm.5-.866l12.124 7a1 1 0 0 1 .5.866v14a1 1 0 0 1-.5.866l-12.124 7a1 1 0 0 1-1 0l-12.124-7a1 1 0 0 1-.5-.866V7a1 1 0 0 1 .5-.866l12.124-7a1 1 0 0 1 1 0zM9.243 18.557a.5.5 0 1 0-.464.886l3.93 2.056a.5.5 0 0 0 .457.003l4.06-2.056a.5.5 0 0 0-.451-.892l-3.831 1.94-3.701-1.937zm3.524-4.5a.5.5 0 0 1 .466 0l2.042 1.074-.39-2.274a.5.5 0 0 1 .144-.443l1.652-1.61-2.283-.332a.5.5 0 0 1-.377-.273L13 8.129l-1.021 2.07a.5.5 0 0 1-.377.273l-2.283.332 1.652 1.61a.5.5 0 0 1 .144.443l-.39 2.274 2.042-1.074zm-2.473 2.43a.5.5 0 0 1-.726-.526l.517-3.014-2.19-2.134a.5.5 0 0 1 .278-.853l3.026-.44 1.353-2.741a.5.5 0 0 1 .896 0l1.353 2.741 3.026.44a.5.5 0 0 1 .277.853l-2.19 2.134.518 3.014a.5.5 0 0 1-.726.527L13 15.065l-2.706 1.423z" transform="translate(1 1)" fill-rule="nonzero" fill="url(#a)"/></svg>