<svg width="28" height="30" viewBox="0 0 28 30" xmlns="http://www.w3.org/2000/svg"><title>Polygon</title><path d="M14 1L1.876 8v14L14 29l12.124-7V8L14 1zm.5-.866l12.124 7a1 1 0 0 1 .5.866v14a1 1 0 0 1-.5.866l-12.124 7a1 1 0 0 1-1 0l-12.124-7a1 1 0 0 1-.5-.866V8a1 1 0 0 1 .5-.866l12.124-7a1 1 0 0 1 1 0zm-4.268 17.423a.5.5 0 1 0-.464.886l3.93 2.056a.5.5 0 0 0 .457.003l4.06-2.056a.5.5 0 0 0-.451-.892l-3.83 1.94-3.702-1.937zm0 3a.5.5 0 1 0-.464.886l3.93 2.056a.5.5 0 0 0 .457.003l4.06-2.056a.5.5 0 0 0-.451-.892l-3.83 1.94-3.702-1.937zm1.493-6.426l2.042-1.074a.5.5 0 0 1 .466 0l2.042 1.074-.39-2.274a.5.5 0 0 1 .144-.443l1.652-1.61-2.283-.332a.5.5 0 0 1-.377-.273L14 7.129 12.979 9.2a.5.5 0 0 1-.377.273l-2.283.332 1.652 1.61a.5.5 0 0 1 .144.443l-.39 2.274zm-.431 1.357a.5.5 0 0 1-.726-.527l.517-3.014-2.19-2.134a.5.5 0 0 1 .278-.853l3.026-.44 1.353-2.741a.5.5 0 0 1 .896 0l1.353 2.741 3.026.44a.5.5 0 0 1 .277.853l-2.19 2.134.518 3.014a.5.5 0 0 1-.726.527L14 14.065l-2.706 1.423z" fill-rule="nonzero" fill="#FFF"/></svg>