<svg width="274" height="55" viewBox="0 0 274 55" xmlns="http://www.w3.org/2000/svg"><title>Group 20</title><g fill="none" fill-rule="evenodd"><path fill-opacity=".3" fill="#FFBE00" d="M20 0L10 28l10 27h234l10-27-10-28z"/><path stroke="#FFBE00" d="M10 5L2 27.5 10 50"/><path d="M8 50a2 2 0 1 1 4.001.001A2 2 0 0 1 8 50M0 28a2 2 0 1 1 4.001.001A2 2 0 0 1 0 28M8 5a2 2 0 1 1 4.001.001A2 2 0 0 1 8 5" fill="#FFBE00"/><g><path stroke="#FFBE00" d="M264 5l8 22.5-8 22.5"/><path d="M266 50a2 2 0 1 0-4.001.001A2 2 0 0 0 266 50M274 28a2 2 0 1 0-4.001.001A2 2 0 0 0 274 28M266 5a2 2 0 1 0-4.001.001A2 2 0 0 0 266 5" fill="#FFBE00"/></g></g></svg>